<svg xmlns="http://www.w3.org/2000/svg" viewBox="0 0 115.591 57.869" height="218.717" width="436.879"><path d="M82.853 43.4L57.795 57.868 32.738 43.4V14.467L57.795 0l25.058 14.467z" fill="#458588"/><path d="M83.854 28.934L98.32 43.4" fill="none" stroke="#282828"/><path d="M111.037 27.146l-12.982 12.98.707.707 12.982-12.98zm2.83 2.83l-12.98 12.98.707.707 12.98-12.98z" dominant-baseline="auto" fill="#282828"/><g fill="none"><path d="M102.858 44.93l-6.043-6.043" stroke="#928374"/><path d="M31.738 28.934L17.27 43.4" stroke="#282828"/></g><path d="M4.554 27.147l12.982 12.98-.707.707-12.982-12.98zm-2.828 2.828l12.98 12.98-.707.707-12.98-12.98z" dominant-baseline="auto" fill="#282828"/><path d="M12.733 44.93l6.043-6.043" fill="none" stroke="#928374"/><path d="M2.04 31.703l2.786-.75.747-2.788-2.04-2.04-2.787.748L0 29.66l1.02 1.02zm111.5 0l-2.786-.75-.747-2.788 2.04-2.04 2.787.748.747 2.786-1.02 1.02z" fill="#458588"/><g fill="none"><g stroke="#282828"><path d="M48.4 18.084v7.234"/><path d="M52.015 25.318H44.78m7.234-7.234H44.78"/></g><path d="M64.06 18.084v7.234h7.234v-7.234H64.06" stroke="#2828ff" stroke-width=".265" stroke-opacity="0"/></g><path d="M63.575 18.084h7.234v7.234h-7.234z" fill="#fbf1c7" stroke="#282828"/></svg>